<mxfile host="app.diagrams.net" modified="2021-09-13T11:41:17.623Z" agent="5.0 (Macintosh; Intel Mac OS X 10_15_7) AppleWebKit/537.36 (KHTML, like Gecko) Chrome/92.0.4515.159 Safari/537.36" etag="D4A0SWSidXpOLknlW6yF" version="14.8.4" type="github">
  <diagram id="n_qavBiN6MMGcR-FD4BU" name="第 1 页">
    <mxGraphModel dx="1240" dy="754" grid="1" gridSize="10" guides="1" tooltips="1" connect="1" arrows="1" fold="1" page="1" pageScale="1" pageWidth="827" pageHeight="1169" math="0" shadow="0">
      <root>
        <mxCell id="0" />
        <mxCell id="1" parent="0" />
        <mxCell id="AQ3Vgpi4hOD1ti2WI0cW-1" value="" style="rounded=0;whiteSpace=wrap;fillColor=#d5e8d4;strokeColor=#82b366;" parent="1" vertex="1">
          <mxGeometry x="100" y="184" width="550" height="60" as="geometry" />
        </mxCell>
        <mxCell id="AQ3Vgpi4hOD1ti2WI0cW-2" value="" style="rounded=0;whiteSpace=wrap;html=1;fillColor=#dae8fc;strokeColor=#6c8ebf;" parent="1" vertex="1">
          <mxGeometry x="100" y="270" width="550" height="140" as="geometry" />
        </mxCell>
        <mxCell id="AQ3Vgpi4hOD1ti2WI0cW-3" value="" style="rounded=0;whiteSpace=wrap;html=1;fillColor=#f5f5f5;strokeColor=#666666;fontColor=#333333;" parent="1" vertex="1">
          <mxGeometry x="100" y="430" width="550" height="230" as="geometry" />
        </mxCell>
        <mxCell id="AQ3Vgpi4hOD1ti2WI0cW-4" value="直播伴侣(electron)" style="text;html=1;strokeColor=none;fillColor=none;align=center;verticalAlign=middle;whiteSpace=wrap;rounded=0;" parent="1" vertex="1">
          <mxGeometry x="120" y="210" width="40" height="20" as="geometry" />
        </mxCell>
        <mxCell id="AQ3Vgpi4hOD1ti2WI0cW-7" value="obs-studio-node(v0.13.26)" style="text;html=1;strokeColor=none;fillColor=none;align=center;verticalAlign=middle;whiteSpace=wrap;rounded=0;fontColor=#000000;" parent="1" vertex="1">
          <mxGeometry x="120" y="330" width="60" height="20" as="geometry" />
        </mxCell>
        <mxCell id="AQ3Vgpi4hOD1ti2WI0cW-10" style="edgeStyle=orthogonalEdgeStyle;rounded=0;orthogonalLoop=1;jettySize=auto;html=1;entryX=1;entryY=0.5;entryDx=0;entryDy=0;fontColor=#000000;" parent="1" source="AQ3Vgpi4hOD1ti2WI0cW-8" target="AQ3Vgpi4hOD1ti2WI0cW-9" edge="1">
          <mxGeometry relative="1" as="geometry">
            <mxPoint x="780" y="340.0000000000001" as="targetPoint" />
          </mxGeometry>
        </mxCell>
        <mxCell id="AQ3Vgpi4hOD1ti2WI0cW-12" value="ipc" style="edgeLabel;html=1;align=center;verticalAlign=middle;resizable=0;points=[];fontColor=#000000;" parent="AQ3Vgpi4hOD1ti2WI0cW-10" vertex="1" connectable="0">
          <mxGeometry x="-0.1143" y="4" relative="1" as="geometry">
            <mxPoint as="offset" />
          </mxGeometry>
        </mxCell>
        <mxCell id="AQ3Vgpi4hOD1ti2WI0cW-8" value="obs-studio-client" style="rounded=1;whiteSpace=wrap;html=1;fontColor=#000000;" parent="1" vertex="1">
          <mxGeometry x="420" y="290" width="160" height="100" as="geometry" />
        </mxCell>
        <mxCell id="AQ3Vgpi4hOD1ti2WI0cW-13" style="edgeStyle=orthogonalEdgeStyle;rounded=0;orthogonalLoop=1;jettySize=auto;html=1;exitX=0.5;exitY=1;exitDx=0;exitDy=0;entryX=0.363;entryY=-0.001;entryDx=0;entryDy=0;entryPerimeter=0;fontColor=#000000;" parent="1" source="AQ3Vgpi4hOD1ti2WI0cW-9" target="AQ3Vgpi4hOD1ti2WI0cW-3" edge="1">
          <mxGeometry relative="1" as="geometry" />
        </mxCell>
        <mxCell id="AQ3Vgpi4hOD1ti2WI0cW-14" value="load dll" style="edgeLabel;html=1;align=center;verticalAlign=middle;resizable=0;points=[];fontColor=#000000;" parent="AQ3Vgpi4hOD1ti2WI0cW-13" vertex="1" connectable="0">
          <mxGeometry x="-0.1019" y="-2" relative="1" as="geometry">
            <mxPoint as="offset" />
          </mxGeometry>
        </mxCell>
        <mxCell id="AQ3Vgpi4hOD1ti2WI0cW-9" value="obs-studio-server" style="rounded=1;whiteSpace=wrap;html=1;fontColor=#000000;" parent="1" vertex="1">
          <mxGeometry x="220" y="290" width="160" height="100" as="geometry" />
        </mxCell>
        <mxCell id="AQ3Vgpi4hOD1ti2WI0cW-11" value="&lt;span style=&quot;font-size: 12px ; background-color: rgb(248 , 249 , 250)&quot;&gt;require(&#39;./obs_studio_client.node&#39;)&lt;/span&gt;" style="endArrow=classic;startArrow=classic;html=1;fontColor=#000000;exitX=0.5;exitY=0;exitDx=0;exitDy=0;entryX=0.5;entryY=1;entryDx=0;entryDy=0;" parent="1" source="AQ3Vgpi4hOD1ti2WI0cW-8" target="AQ3Vgpi4hOD1ti2WI0cW-16" edge="1">
          <mxGeometry width="50" height="50" relative="1" as="geometry">
            <mxPoint x="380" y="130" as="sourcePoint" />
            <mxPoint x="500" y="240" as="targetPoint" />
            <mxPoint as="offset" />
          </mxGeometry>
        </mxCell>
        <mxCell id="AQ3Vgpi4hOD1ti2WI0cW-16" value="obs.NodeObs.OBS_service_startStreaming()" style="text;strokeColor=none;fillColor=none;align=center;verticalAlign=middle;whiteSpace=wrap;rounded=0;fontColor=#000000;" parent="1" vertex="1">
          <mxGeometry x="370" y="204" width="260" height="20" as="geometry" />
        </mxCell>
        <mxCell id="AQ3Vgpi4hOD1ti2WI0cW-18" value="obs-studio(v26.3.10)" style="text;html=1;strokeColor=none;fillColor=none;align=center;verticalAlign=middle;whiteSpace=wrap;rounded=0;fontColor=#000000;" parent="1" vertex="1">
          <mxGeometry x="130" y="440" width="40" height="20" as="geometry" />
        </mxCell>
        <mxCell id="AQ3Vgpi4hOD1ti2WI0cW-20" style="edgeStyle=orthogonalEdgeStyle;rounded=0;orthogonalLoop=1;jettySize=auto;html=1;exitX=1;exitY=0.5;exitDx=0;exitDy=0;fontColor=#000000;" parent="1" source="AQ3Vgpi4hOD1ti2WI0cW-19" target="AQ3Vgpi4hOD1ti2WI0cW-16" edge="1">
          <mxGeometry relative="1" as="geometry" />
        </mxCell>
        <mxCell id="AQ3Vgpi4hOD1ti2WI0cW-19" value="开始直播" style="rounded=1;whiteSpace=wrap;html=1;fontColor=#000000;" parent="1" vertex="1">
          <mxGeometry x="220" y="202" width="60" height="24" as="geometry" />
        </mxCell>
        <mxCell id="AQ3Vgpi4hOD1ti2WI0cW-22" value="场景（scence）" style="rounded=0;whiteSpace=wrap;html=1;fillColor=#fff2cc;strokeColor=#d6b656;" parent="1" vertex="1">
          <mxGeometry x="210" y="473" width="130" height="40" as="geometry" />
        </mxCell>
        <mxCell id="AQ3Vgpi4hOD1ti2WI0cW-23" value="源（source）" style="rounded=0;whiteSpace=wrap;html=1;fillColor=#fff2cc;strokeColor=#d6b656;" parent="1" vertex="1">
          <mxGeometry x="350" y="473" width="120" height="40" as="geometry" />
        </mxCell>
        <mxCell id="AQ3Vgpi4hOD1ti2WI0cW-24" value="混音器（aux）" style="rounded=0;whiteSpace=wrap;html=1;fillColor=#fff2cc;strokeColor=#d6b656;" parent="1" vertex="1">
          <mxGeometry x="480" y="473" width="130" height="40" as="geometry" />
        </mxCell>
        <mxCell id="AQ3Vgpi4hOD1ti2WI0cW-25" value="窗口（display）" style="rounded=0;whiteSpace=wrap;html=1;fillColor=#fff2cc;strokeColor=#d6b656;" parent="1" vertex="1">
          <mxGeometry x="210" y="528" width="130" height="40" as="geometry" />
        </mxCell>
        <mxCell id="AQ3Vgpi4hOD1ti2WI0cW-26" value="设置（setting）" style="rounded=0;whiteSpace=wrap;html=1;fillColor=#fff2cc;strokeColor=#d6b656;" parent="1" vertex="1">
          <mxGeometry x="350" y="528" width="120" height="40" as="geometry" />
        </mxCell>
        <mxCell id="AQ3Vgpi4hOD1ti2WI0cW-27" value="插件（plugin）" style="rounded=0;whiteSpace=wrap;html=1;fillColor=#fff2cc;strokeColor=#d6b656;" parent="1" vertex="1">
          <mxGeometry x="480" y="528" width="130" height="40" as="geometry" />
        </mxCell>
        <mxCell id="AQ3Vgpi4hOD1ti2WI0cW-28" value="推流（service）" style="rounded=0;whiteSpace=wrap;html=1;fillColor=#fff2cc;strokeColor=#d6b656;" parent="1" vertex="1">
          <mxGeometry x="210" y="583" width="130" height="40" as="geometry" />
        </mxCell>
        <mxCell id="AQ3Vgpi4hOD1ti2WI0cW-29" value="滤镜（filter）" style="rounded=0;whiteSpace=wrap;html=1;fillColor=#fff2cc;strokeColor=#d6b656;" parent="1" vertex="1">
          <mxGeometry x="351" y="583" width="120" height="40" as="geometry" />
        </mxCell>
        <mxCell id="AQ3Vgpi4hOD1ti2WI0cW-30" value="性能（performance）" style="rounded=0;whiteSpace=wrap;html=1;fillColor=#fff2cc;strokeColor=#d6b656;" parent="1" vertex="1">
          <mxGeometry x="480" y="583" width="130" height="40" as="geometry" />
        </mxCell>
        <mxCell id="Hk4JoPYYYtWIrVJbB5W2-1" value="" style="rounded=0;whiteSpace=wrap;html=1;" vertex="1" parent="1">
          <mxGeometry x="110" y="770" width="270" height="60" as="geometry" />
        </mxCell>
        <mxCell id="Hk4JoPYYYtWIrVJbB5W2-2" value="正式大版本" style="text;html=1;strokeColor=none;fillColor=none;align=center;verticalAlign=middle;whiteSpace=wrap;rounded=0;" vertex="1" parent="1">
          <mxGeometry x="120" y="850" width="80" height="20" as="geometry" />
        </mxCell>
        <mxCell id="Hk4JoPYYYtWIrVJbB5W2-4" value="" style="endArrow=classic;html=1;exitX=0.185;exitY=0.833;exitDx=0;exitDy=0;exitPerimeter=0;" edge="1" parent="1" source="Hk4JoPYYYtWIrVJbB5W2-1" target="Hk4JoPYYYtWIrVJbB5W2-2">
          <mxGeometry width="50" height="50" relative="1" as="geometry">
            <mxPoint x="390" y="970" as="sourcePoint" />
            <mxPoint x="440" y="920" as="targetPoint" />
          </mxGeometry>
        </mxCell>
        <mxCell id="Hk4JoPYYYtWIrVJbB5W2-5" value="功能更新" style="text;html=1;strokeColor=none;fillColor=none;align=center;verticalAlign=middle;whiteSpace=wrap;rounded=0;" vertex="1" parent="1">
          <mxGeometry x="200" y="850" width="80" height="20" as="geometry" />
        </mxCell>
        <mxCell id="Hk4JoPYYYtWIrVJbB5W2-6" value="Bug修复" style="text;html=1;strokeColor=none;fillColor=none;align=center;verticalAlign=middle;whiteSpace=wrap;rounded=0;" vertex="1" parent="1">
          <mxGeometry x="280" y="850" width="80" height="20" as="geometry" />
        </mxCell>
        <mxCell id="Hk4JoPYYYtWIrVJbB5W2-7" value="" style="endArrow=classic;html=1;exitX=0.185;exitY=0.833;exitDx=0;exitDy=0;exitPerimeter=0;" edge="1" parent="1">
          <mxGeometry width="50" height="50" relative="1" as="geometry">
            <mxPoint x="239.50000000000006" y="819.98" as="sourcePoint" />
            <mxPoint x="239.5375062468766" y="850" as="targetPoint" />
          </mxGeometry>
        </mxCell>
        <mxCell id="Hk4JoPYYYtWIrVJbB5W2-8" value="" style="endArrow=classic;html=1;exitX=0.185;exitY=0.833;exitDx=0;exitDy=0;exitPerimeter=0;" edge="1" parent="1">
          <mxGeometry width="50" height="50" relative="1" as="geometry">
            <mxPoint x="315.00000000000006" y="819.98" as="sourcePoint" />
            <mxPoint x="315.0375062468766" y="850" as="targetPoint" />
          </mxGeometry>
        </mxCell>
        <mxCell id="Hk4JoPYYYtWIrVJbB5W2-9" value="&lt;span style=&quot;font-size: 24px&quot;&gt;X&amp;nbsp; &amp;nbsp; .&amp;nbsp; &amp;nbsp; X&amp;nbsp; &amp;nbsp; .&amp;nbsp; &amp;nbsp; X&amp;nbsp;&amp;nbsp;&lt;/span&gt;" style="text;html=1;strokeColor=none;fillColor=none;align=center;verticalAlign=middle;whiteSpace=wrap;rounded=0;" vertex="1" parent="1">
          <mxGeometry x="145" y="790" width="200" height="20" as="geometry" />
        </mxCell>
        <mxCell id="Hk4JoPYYYtWIrVJbB5W2-10" value="版本号" style="text;html=1;strokeColor=none;fillColor=none;align=center;verticalAlign=middle;whiteSpace=wrap;rounded=0;" vertex="1" parent="1">
          <mxGeometry x="110" y="740" width="40" height="20" as="geometry" />
        </mxCell>
      </root>
    </mxGraphModel>
  </diagram>
</mxfile>
